<svg width="26" height="24" viewBox="0 0 26 24" fill="none" xmlns="http://www.w3.org/2000/svg">
<path d="M19.1855 19C20.5663 19 21.6855 17.8807 21.6855 16.5C21.6855 15.1193 20.5663 14 19.1855 14C17.8048 14 16.6855 15.1193 16.6855 16.5C16.6855 17.8807 17.8048 19 19.1855 19ZM19.1855 19C16.9764 19 15.1855 20.7909 15.1855 23H23.1855C23.1855 20.7909 21.3947 19 19.1855 19ZM10.1855 6.5C10.1855 8.98528 8.17083 11 5.68555 11C3.20027 11 1.18555 8.98528 1.18555 6.5C1.18555 4.01472 3.20027 2 5.68555 2C8.17083 2 10.1855 4.01472 10.1855 6.5ZM1.18555 14H10.1855V23H1.18555V14ZM19.1855 2L24.1855 11H14.1855L19.1855 2Z" stroke="white" stroke-linecap="square"/>
</svg>
