<svg width="26" height="28" viewBox="0 0 26 28" fill="none" xmlns="http://www.w3.org/2000/svg">
<path d="M25.1855 8V3H19.6855M25.1855 8H19.6855M25.1855 8V12.5M1.18555 8V3H7.18555M1.18555 8H7.18555M1.18555 8V12.5M13.6855 8H19.6855M13.6855 8H7.18555M13.6855 8V12.5M13.6855 27H19.6855M13.6855 27H7.18555M13.6855 27V22M19.6855 8V12.5M19.6855 27H23.1855C24.2901 27 25.1855 26.1046 25.1855 25V22M19.6855 27V22M7.18555 8V12.5M7.18555 27H3.18555C2.08098 27 1.18555 26.1046 1.18555 25V22M7.18555 27V22M25.1855 17.5V12.5M25.1855 17.5V22M25.1855 17.5H19.6855M1.18555 17.5V12.5M1.18555 17.5V22M1.18555 17.5H7.18555M1.18555 12.5H7.18555M25.1855 12.5H19.6855M25.1855 22H19.6855M1.18555 22H7.18555M19.6855 5V3M19.6855 3V1M19.6855 3H7.18555M7.18555 3V1M7.18555 3V5M19.6855 12.5V17.5M19.6855 12.5H13.6855M19.6855 17.5V22M19.6855 17.5H13.6855M19.6855 22H13.6855M13.6855 22V17.5M13.6855 22H7.18555M13.6855 17.5V12.5M13.6855 17.5H7.18555M13.6855 12.5H7.18555M7.18555 12.5V17.5M7.18555 17.5V22" stroke="white" stroke-linecap="square"/>
</svg>
