<svg width="25" height="31" viewBox="0 0 25 31" fill="none" xmlns="http://www.w3.org/2000/svg">
<path d="M12.5 7.99979C13.184 7.99979 12.1846 7.99979 12.5 7.99979Z" fill="#DADADA"/>
<path d="M12.5 7.99979C11.816 7.99979 12.8154 7.99979 12.5 7.99979Z" fill="#DADADA"/>
<path d="M1 18.9998V29.9998H12.5M1 18.9998V7.99979H12.5M1 18.9998H12.5M24 18.9998V7.99979H12.5M24 18.9998V29.9998H12.5M24 18.9998H12.5M12.5 7.99979C13.5 3.49979 16.7449 -0.500208 19.1858 1.99979C21.658 4.53194 15.3753 7.84389 12.5 7.99979ZM12.5 7.99979C12.1846 7.99979 13.184 7.99979 12.5 7.99979ZM12.5 7.99979V18.9998M12.5 7.99979C11.5 3.49979 8.25505 -0.500208 5.81421 1.99979C3.34198 4.53194 9.62471 7.84389 12.5 7.99979ZM12.5 7.99979C12.8154 7.99979 11.816 7.99979 12.5 7.99979ZM12.5 29.9998V18.9998" stroke="white" stroke-linecap="square"/>
</svg>
